<svg width="216" height="76" viewBox="-6 -6 204 64" xmlns="http://www.w3.org/2000/svg" xmlns:xlink="http://www.w3.org/1999/xlink"><title>logo</title><defs><path d="M93.904 25.648h2.808v6.384c-.88.656-1.92 1.188-3.12 1.596-1.2.408-2.376.612-3.528.612-1.648 0-3.148-.384-4.5-1.152a8.6 8.6 0 0 1-3.204-3.132c-.784-1.32-1.176-2.78-1.176-4.38s.4-3.052 1.2-4.356c.8-1.304 1.892-2.336 3.276-3.096 1.384-.76 2.916-1.14 4.596-1.14 1.2 0 2.384.216 3.552.648 1.168.432 2.176 1.024 3.024 1.776l-1.824 2.376a6.923 6.923 0 0 0-2.22-1.416 6.77 6.77 0 0 0-2.532-.504 5.806 5.806 0 0 0-2.916.756 5.566 5.566 0 0 0-2.1 2.076 5.626 5.626 0 0 0-.768 2.88c0 1.056.26 2.024.78 2.904.52.88 1.22 1.576 2.1 2.088.88.512 1.856.768 2.928.768a6.48 6.48 0 0 0 1.812-.276 8.05 8.05 0 0 0 1.812-.78v-4.632zm15.88-2.832c1.032 1.168 1.548 2.808 1.548 4.92 0 .416-.008.728-.024.936h-9.48c.208.912.636 1.628 1.284 2.148.648.52 1.444.78 2.388.78.656 0 1.284-.124 1.884-.372a4.608 4.608 0 0 0 1.572-1.068l1.68 1.752a6.497 6.497 0 0 1-2.34 1.632c-.92.384-1.94.576-3.06.576-1.312 0-2.468-.272-3.468-.816a5.705 5.705 0 0 1-2.316-2.292c-.544-.984-.816-2.116-.816-3.396 0-1.28.276-2.416.828-3.408a5.863 5.863 0 0 1 2.316-2.316c.992-.552 2.12-.828 3.384-.828 2.048 0 3.588.584 4.62 1.752zm-1.308 3.768c-.032-.944-.344-1.696-.936-2.256-.592-.56-1.376-.84-2.352-.84-.912 0-1.676.276-2.292.828-.616.552-.996 1.308-1.14 2.268h6.72zm25.3-4.212c.832.888 1.248 2.092 1.248 3.612V34h-3.144v-7.104c0-.912-.252-1.628-.756-2.148-.504-.52-1.188-.78-2.052-.78-.992.032-1.78.392-2.364 1.08-.584.688-.876 1.56-.876 2.616V34h-3.144v-7.104c0-.912-.248-1.628-.744-2.148-.496-.52-1.176-.78-2.04-.78-1.008.032-1.804.392-2.388 1.08-.584.688-.876 1.56-.876 2.616V34h-3.12V21.16h3.12v2.376c.848-1.632 2.352-2.464 4.512-2.496 1.12 0 2.06.268 2.82.804.76.536 1.292 1.292 1.596 2.268.816-2.016 2.408-3.04 4.776-3.072 1.456 0 2.6.444 3.432 1.332zm16.048-4.044c1.032.752 1.548 1.776 1.548 3.072 0 .928-.26 1.724-.78 2.388-.52.664-1.236 1.108-2.148 1.332 1.12.208 1.996.688 2.628 1.44.632.752.948 1.688.948 2.808 0 1.44-.556 2.572-1.668 3.396-1.112.824-2.628 1.236-4.548 1.236h-7.68V17.2h7.464c1.792 0 3.204.376 4.236 1.128zm-2.448 5.184c.472-.368.708-.88.708-1.536 0-.64-.236-1.136-.708-1.488-.472-.352-1.124-.52-1.956-.504h-4.08v4.08h4.08c.832 0 1.484-.184 1.956-.552zm.444 7.128c.576-.4.864-.96.864-1.68 0-.688-.288-1.228-.864-1.62-.576-.392-1.376-.58-2.4-.564h-4.08v4.44h4.08c1.024.016 1.824-.176 2.4-.576zm15.832-8.76a5.905 5.905 0 0 1 2.376 2.292c.568.984.852 2.116.852 3.396 0 1.296-.284 2.44-.852 3.432a5.882 5.882 0 0 1-2.376 2.304c-1.016.544-2.188.816-3.516.816-1.344 0-2.528-.272-3.552-.816A5.863 5.863 0 0 1 154.196 31c-.568-.992-.852-2.136-.852-3.432 0-1.28.284-2.412.852-3.396a5.886 5.886 0 0 1 2.388-2.292c1.024-.544 2.208-.816 3.552-.816 1.328 0 2.5.272 3.516.816zm-6.156 2.928c-.672.72-1.008 1.656-1.008 2.808s.336 2.088 1.008 2.808c.672.72 1.552 1.08 2.64 1.08 1.056 0 1.92-.36 2.592-1.08.672-.72 1.008-1.656 1.008-2.808s-.336-2.088-1.008-2.808c-.672-.72-1.536-1.08-2.592-1.08-1.088 0-1.968.36-2.64 1.08zm9.508-3.648h3.6l2.664 4.176 2.736-4.176h3.432l-4.08 6.264L179.724 34h-3.6l-2.856-4.488L170.172 34h-3.48l4.488-6.576-4.176-6.264z" id="path-3"/><filter x="-1%" y="-2.9%" width="102%" height="111.6%" filterUnits="objectBoundingBox" id="filter-4"><feOffset dy=".5" in="SourceAlpha" result="shadowOffsetOuter1"/><feGaussianBlur stdDeviation=".25" in="shadowOffsetOuter1" result="shadowBlurOuter1"/><feColorMatrix values="0 0 0 0 0 0 0 0 0 0 0 0 0 0 0 0 0 0 0.3 0" in="shadowBlurOuter1"/></filter></defs><g id="Assets" fill="none" fill-rule="evenodd"><g id="logo"><g id="®"><use fill="#000" filter="url(#filter-2)" xlink:href="#path-1"/><use fill="#FFF" xlink:href="#path-1"/></g><g id="GemBox"><use fill="#000" filter="url(#filter-4)" xlink:href="#path-3"/><use fill="#FFF" xlink:href="#path-3"/></g><g id="symbol"><path id="Rectangle" fill="#004470" d="M34 2l32 12v24L34 26z"/><path id="Rectangle" fill="#002D4A" transform="matrix(-1 0 0 1 36 0)" d="M2 2l32 12v24L2 26z"/><path id="Path-5" fill="#FFF" d="M10 17l24-9 24 9-24 9z"/><path id="Rectangle" fill="#0072BB" d="M34 26l32-12v24L34 50z"/><path id="Rectangle" fill="#00558C" d="M2 14l32 12v24L2 38z"/><path id="Path-3" fill="#008ECC" d="M34 50V26l32 12z"/><path id="Path-3" fill="#0055A9" transform="matrix(-1 0 0 1 36 0)" d="M2 50V26l32 12z"/><path id="Path-4" fill="#00ABDD" d="M34 50l32-36v24z"/><path id="Path-4" fill="#003999" transform="matrix(-1 0 0 1 36 0)" d="M2 50l32-36v24z"/><path d="M2.649 13.757a1 1 0 0 0-.649.936v22.614a1 1 0 0 0 .649.936l31 11.625a1 1 0 0 0 .702 0l31-11.625a1 1 0 0 0 .649-.936V14.693a1 1 0 0 0-.649-.936l-31-11.625a1 1 0 0 0-.702 0l-31 11.625zm-.702-1.873l31-11.625a3 3 0 0 1 2.106 0l31 11.625A3 3 0 0 1 68 14.693v22.614a3 3 0 0 1-1.947 2.809l-31 11.625a3 3 0 0 1-2.106 0l-31-11.625A3 3 0 0 1 0 37.307V14.693a3 3 0 0 1 1.947-2.809z" id="Path-3" fill="#FFF" fill-rule="nonzero"/></g></g></g></svg>